<svg xmlns="http://www.w3.org/2000/svg" version="1.1" xmlns:xlink="http://www.w3.org/1999/xlink" xmlns:svgjs="http://svgjs.dev/svgjs" width="100" height="100" viewBox="0 0 1500 522"><g transform="matrix(1,0,0,1,-0.9090909090909918,-0.2893793961653728)"><svg viewBox="0 0 396 138" data-background-color="#ffffff" preserveAspectRatio="xMidYMid meet" height="100" width="100" xmlns="http://www.w3.org/2000/svg" xmlns:xlink="http://www.w3.org/1999/xlink"><g id="tight-bounds" transform="matrix(1,0,0,1,0.2400000000000091,0.07650259898625222)"><svg viewBox="0 0 395.52 137.8469948020275" height="137.8469948020275" width="395.52"><g><svg viewBox="0 0 701.3391307227689 244.43136" height="100" width="100"><g transform="matrix(1,0,0,1,305.81913072276893,70.20889343739398)"><svg viewBox="0 0 395.52000000000004 104.01357312521206" height="104.01357312521206" width="395.52000000000004"><g id="textblocktransform"><svg viewBox="0 0 395.52000000000004 104.01357312521206" height="104.01357312521206" width="395.52000000000004" id="textblock"><g><svg viewBox="0 0 395.52000000000004 104.01357312521206" height="104.01357312521206" width="9"><g transform="matrix(1,0,0,1,0,0)"><svg width="395.52000000000004" viewBox="5.35 -37.9 147.34 38.75" height="104.01357312521206" data-palette-color="#798cc1"><path d="M5.35 0L5.35-37.9 10.2-37.9 10.2 0 5.35 0ZM32.1-22.95L25.7-22.95 25.7-7.15Q25.7-5.15 26.32-4.42 26.95-3.7 28.65-3.7L28.65-3.7Q30.15-3.7 31.85-4.1L31.85-4.1 31.85 0.15Q29.6 0.65 27.85 0.65L27.85 0.65Q24.05 0.65 22.52-0.9 21-2.45 21-6.1L21-6.1 21-22.95 17.4-22.95 17.4-27.3 21-27.3 21-36.8 25.7-36.8 25.7-27.3 32.1-27.3 32.1-22.95ZM69.55-37.9L74.9-37.9 74.9 0 70.05 0 70.05-30.55 58.45-14.4 55.9-14.4 44.4-30.55 44.4 0 39.55 0 39.55-37.9 44.85-37.9 57.2-20.6 69.55-37.9ZM93.24-27.65Q97.64-27.65 99.94-26.18 102.24-24.7 102.99-22.23 103.74-19.75 103.74-16L103.74-16 103.74 0 99.04 0 99.04-2.75Q97.14-0.95 95.24-0.15 93.34 0.65 91.14 0.65L91.14 0.65Q88.54 0.65 86.44-0.48 84.34-1.6 83.12-3.73 81.89-5.85 81.89-8.75L81.89-8.75Q81.89-13.25 84.69-15.73 87.49-18.2 92.24-18.2L92.24-18.2Q95.99-18.2 98.99-16.55L98.99-16.55Q98.94-19 98.49-20.45 98.04-21.9 96.64-22.68 95.24-23.45 92.49-23.45L92.49-23.45 88.79-23.45 88.79-27.65 93.24-27.65ZM91.79-3.4Q93.49-3.4 95.37-4.2 97.24-5 99.04-6.6L99.04-6.6 99.04-12.9Q96.24-14.3 92.94-14.3L92.94-14.3Q90.29-14.3 88.49-13.03 86.69-11.75 86.69-8.75L86.69-8.75Q86.69-5.95 88.22-4.67 89.74-3.4 91.79-3.4L91.79-3.4ZM123.54-22.95L117.14-22.95 117.14-7.15Q117.14-5.15 117.77-4.42 118.39-3.7 120.09-3.7L120.09-3.7Q121.59-3.7 123.29-4.1L123.29-4.1 123.29 0.15Q121.04 0.65 119.29 0.65L119.29 0.65Q115.49 0.65 113.97-0.9 112.44-2.45 112.44-6.1L112.44-6.1 112.44-22.95 108.84-22.95 108.84-27.3 112.44-27.3 112.44-36.8 117.14-36.8 117.14-27.3 123.54-27.3 123.54-22.95ZM133.34-13.45Q133.44-8.85 135.64-6.1 137.84-3.35 142.64-3.35L142.64-3.35Q146.29-3.35 150.64-5.4L150.64-5.4 152.09-1.5Q147.54 0.85 142.24 0.85L142.24 0.85Q137.84 0.85 134.74-1 131.64-2.85 130.04-6.15 128.44-9.45 128.44-13.85L128.44-13.85Q128.44-18.5 130.11-21.78 131.79-25.05 134.64-26.75 137.49-28.45 141.04-28.45L141.04-28.45Q146.49-28.45 149.59-25.05 152.69-21.65 152.69-15.3L152.69-15.3 152.69-13.45 133.34-13.45ZM141.04-24.25Q134.84-24.25 133.64-17.4L133.64-17.4 147.74-17.4Q147.49-20.9 145.84-22.58 144.19-24.25 141.04-24.25L141.04-24.25Z" opacity="1" transform="matrix(1,0,0,1,0,0)" fill="#798cc1" class="wordmark-text-0" data-fill-palette-color="primary" id="text-0"></path></svg></g></svg></g></svg></g></svg></g><g><svg viewBox="0 0 244.43136 244.43136" height="244.43136" width="244.43136"><g><svg viewBox="0 0 244.43136 244.43136" height="244.43136" width="244.43136"><g transform="matrix(1,0,0,1,67.84269765198756,64.60265593644993)"><svg viewBox="0 0 108.74596469602488 115.22604812710014" height="115.22604812710014" width="108.74596469602488"><g><svg xmlns="http://www.w3.org/2000/svg" xmlns:xlink="http://www.w3.org/1999/xlink" version="1.1" baseProfile="tiny" x="0" y="0" viewBox="3.2840745016431585 0.49954218862582234 93.43192549835685 98.99945781137419" overflow="scroll" xml:space="preserve" height="115.22604812710014" width="108.74596469602488" class="icon-cg-0" data-fill-palette-color="accent" id="cg-0"><path d="M70.536 58.215c-4.317 0-7.816 3.499-7.816 7.813 0 4.316 3.499 7.812 7.816 7.812 4.313 0 7.813-3.495 7.813-7.812C78.35 61.714 74.85 58.215 70.536 58.215zM70.536 70.439c-2.436 0-4.411-1.977-4.411-4.412 0-2.437 1.976-4.406 4.411-4.406 2.432 0 4.407 1.97 4.407 4.406C74.943 68.463 72.968 70.439 70.536 70.439zM70.536 39.848c-14.461 0-26.181 11.723-26.181 26.18 0 14.461 11.72 26.179 26.181 26.179 14.458 0 26.18-11.718 26.18-26.179C96.716 51.57 84.994 39.848 70.536 39.848zM45.381 70.357l15.15-2.608c0.146 0.831 0.385 1.626 0.718 2.371l-14.071 6.2C46.349 74.438 45.737 72.443 45.381 70.357zM70.536 91.552c-7.943 0-15.054-3.646-19.735-9.355l11.886-9.736c1.861 2.269 4.688 3.719 7.85 3.719V91.552zM70.536 75.581c-5.279 0-9.559-4.273-9.559-9.554 0-5.275 4.279-9.554 9.559-9.554 5.276 0 9.555 4.278 9.555 9.554C80.091 71.308 75.813 75.581 70.536 75.581zM58.719 89.393l-37.586 8.979v-69.71l6.649 7.341c0.095 0.104 0.229 0.162 0.368 0.162 0.022 0 0.042-0.001 0.064-0.004l48.322-6.24v10.621c0.336 0.077 0.669 0.162 0.996 0.253V29.791l8.606-1.111c0.199-0.024 0.362-0.167 0.418-0.36 0.052-0.193-0.016-0.4-0.171-0.524l-8.816-6.951 6.102-15.282c0.05-0.135 0.042-0.286-0.022-0.414-0.065-0.127-0.185-0.22-0.328-0.255L66.4 0.846c-0.214-0.053-0.439 0.047-0.549 0.242l-6.57 11.826-1.86-11.992c-0.037-0.263-0.28-0.446-0.541-0.42L6.461 5.805C6.312 5.82 6.179 5.902 6.096 6.028 6.014 6.152 5.994 6.308 6.04 6.451l1.011 3.176-3.08-1.259c-0.183-0.074-0.39-0.035-0.532 0.1C3.296 8.604 3.247 8.809 3.313 8.994l4.383 12.373v68.145c0 0.158 0.074 0.303 0.197 0.396l12.337 9.376c0.027 0.042 0.06 0.075 0.098 0.108 0.088 0.067 0.198 0.107 0.31 0.107 0.038 0 0.076-0.005 0.114-0.015l39.415-9.416C59.676 89.862 59.193 89.636 58.719 89.393zM66.538 1.901l15.99 3.826L76.75 20.209l-17.038-6.014L66.538 1.901zM59.486 15.172l15.002 5.293-15.002 1.87V15.172zM76.44 21.224l8.399 6.62L28.344 35.14l-6.088-6.722 36.794-5.025L76.44 21.224zM4.623 9.71l10.443 4.271 4.66 13.087L8.602 20.936 4.623 9.71zM20.138 97.967L8.693 89.268V22.124l11.445 6.306V97.967zM17.928 19.048l-2-5.609c-0.047-0.135-0.15-0.24-0.28-0.293l-7.397-3.028L7.172 6.73l49.341-5.187 1.905 12.296L17.928 19.048zM17.246 39.61c0.234 0.143 0.307 0.451 0.164 0.685-0.094 0.154-0.256 0.238-0.425 0.238-0.088 0-0.177-0.025-0.259-0.075l-6.253-3.82c-0.234-0.144-0.31-0.448-0.167-0.682 0.144-0.237 0.451-0.31 0.685-0.167L17.246 39.61zM10.309 31.183c0.145-0.232 0.453-0.302 0.686-0.157l6.786 4.218c0.233 0.145 0.303 0.453 0.158 0.686-0.094 0.152-0.255 0.235-0.422 0.235-0.089 0-0.18-0.023-0.261-0.074l-6.786-4.222C10.236 31.724 10.164 31.418 10.309 31.183zM28.207 52.795l22.941-4.362c-0.354 0.392-0.697 0.797-1.029 1.209l-21.321 4.056v5.849C35 59.512 39.875 62.71 44.362 66.56c0.123 6.265 2.449 11.992 6.235 16.437l-22.206 4.22c-0.03 0.006-0.063 0.009-0.093 0.009-0.116 0-0.227-0.042-0.316-0.115-0.116-0.095-0.183-0.236-0.183-0.383V53.284C27.801 53.045 27.972 52.843 28.207 52.795zM10.3 81.257c0.137-0.242 0.439-0.324 0.678-0.186l6.254 3.565c0.239 0.133 0.321 0.438 0.186 0.68-0.091 0.158-0.259 0.249-0.433 0.249-0.083 0-0.167-0.023-0.247-0.063l-6.252-3.566C10.248 81.797 10.163 81.491 10.3 81.257zM9.925 51.981l7.333 4.463c0.08 0.052 0.169 0.077 0.258 0.077 0.083 0 0.169-0.021 0.244-0.067 0.158-0.088 0.255-0.252 0.255-0.432V44.974c0-0.175-0.093-0.34-0.245-0.429l-7.332-4.321c-0.154-0.09-0.344-0.092-0.5-0.004-0.156 0.09-0.251 0.254-0.251 0.433v10.908C9.687 51.732 9.777 51.892 9.925 51.981zM10.683 41.522l6.336 3.735v9.879l-6.336-3.856V41.522zM17.404 90.379c-0.096 0.15-0.254 0.229-0.419 0.229-0.092 0-0.186-0.027-0.268-0.078l-6.255-4.042c-0.23-0.149-0.297-0.459-0.148-0.686 0.149-0.233 0.459-0.298 0.688-0.151l6.254 4.039C17.488 89.843 17.553 90.152 17.404 90.379z" fill="#ed9f20" data-fill-palette-color="accent"></path></svg></g></svg></g><g id="text-0"><path d="M30.89 96.834l-29.159-8.121 1.039-3.729 29.159 8.121z" fill="#ed9f20" data-fill-palette-color="accent"></path><path d="M41.94 43.702l-3.376 3.846 9.481 8.323c0.801 0.703 1.458 1.057 1.971 1.061 0.508 0 1.061-0.34 1.658-1.019v0c0.526-0.599 1.007-1.31 1.443-2.131v0l2.553 2.241c-0.59 1.078-1.192 1.968-1.807 2.668v0c-1.335 1.521-2.58 2.314-3.734 2.38-1.16 0.061-2.47-0.549-3.93-1.832v0l-10.108-8.874-1.897 2.161-2.614-2.295 1.897-2.16-5.696-5.001 2.473-2.818 5.697 5.001 3.375-3.845z" fill="#ed9f20" data-fill-palette-color="accent"></path><path d="M94.932 1.418l4.031-1.418 10.044 28.554-3.651 1.284-8.096-23.016-4.464 15.243-1.915 0.674-12.948-9.118 8.097 23.015-3.651 1.285-10.045-28.554 3.993-1.404 13.889 9.767z" fill="#ed9f20" data-fill-palette-color="accent"></path><path d="M154.355 10.703c2.266 0.579 3.896 1.401 4.89 2.464 0.994 1.063 1.519 2.284 1.575 3.661 0.064 1.372-0.151 3.026-0.645 4.96v0l-3.165 12.379-3.643-0.931 0.543-2.123c-1.218 0.678-2.366 1.097-3.444 1.256-1.087 0.165-2.198 0.102-3.335-0.188v0c-1.344-0.344-2.484-0.946-3.418-1.808-0.93-0.853-1.573-1.91-1.929-3.17-0.349-1.258-0.333-2.634 0.049-4.128v0c0.594-2.324 1.775-3.939 3.541-4.842 1.775-0.909 3.886-1.05 6.335-0.425v0c1.935 0.495 3.566 1.365 4.894 2.61v0c0.296-1.266 0.426-2.302 0.389-3.106-0.041-0.813-0.371-1.51-0.991-2.09-0.618-0.587-1.638-1.062-3.059-1.426v0l-2.864-0.732 0.83-3.243zM148.43 29.172c0.883 0.226 1.858 0.254 2.925 0.084 1.072-0.162 2.178-0.536 3.317-1.124v0l1.248-4.879c-1.257-1.089-2.736-1.851-4.438-2.286v0c-1.37-0.35-2.603-0.316-3.699 0.102-1.098 0.425-1.844 1.41-2.24 2.955v0c-0.369 1.441-0.245 2.594 0.372 3.457 0.624 0.858 1.463 1.422 2.515 1.691z" fill="#ed9f20" data-fill-palette-color="accent"></path><path d="M204.616 43.461l-3.849-3.372-8.313 9.49c-0.702 0.802-1.055 1.459-1.059 1.972 0 0.508 0.341 1.06 1.022 1.657v0c0.6 0.525 1.311 1.006 2.132 1.44v0l-2.239 2.556c-1.079-0.589-1.969-1.19-2.669-1.804v0c-1.522-1.334-2.317-2.578-2.384-3.732-0.062-1.159 0.547-2.47 1.827-3.932v0l8.863-10.118-2.163-1.894 2.292-2.616 2.162 1.894 4.995-5.702 2.82 2.471-4.994 5.702 3.849 3.371z" fill="#ed9f20" data-fill-palette-color="accent"></path><path d="M221.436 82.012c-2.251 0.958-3.838 2.25-4.762 3.876-0.927 1.634-0.916 3.636 0.032 6.007v0c0.722 1.804 2.021 3.58 3.897 5.328v0l-2.464 2.231c-2.062-1.781-3.618-3.981-4.666-6.601v0c-0.871-2.178-1.156-4.215-0.853-6.111 0.302-1.897 1.113-3.567 2.433-5.013 1.312-1.449 3.053-2.607 5.225-3.476v0c2.302-0.921 4.428-1.292 6.377-1.111 1.951 0.186 3.628 0.815 5.031 1.885 1.403 1.07 2.455 2.483 3.157 4.237v0c1.078 2.694 1.083 5.143 0.015 7.345-1.065 2.209-3.169 3.942-6.311 5.2v0l-1.372 0.549zM231.726 84.511c-1.225-3.061-3.649-4.214-7.274-3.456v0l4.187 10.462c1.68-0.817 2.771-1.798 3.272-2.944 0.501-1.146 0.44-2.5-0.185-4.062z" fill="#ed9f20" data-fill-palette-color="accent"></path><path d="M9.619 161.246l29.159-8.121 1.038 3.729-29.159 8.121z" fill="#ed9f20" data-fill-palette-color="accent"></path><path d="M52.889 198.839l-3.376-3.845-9.481 8.323c-0.801 0.703-1.234 1.306-1.3 1.81-0.071 0.508 0.192 1.102 0.789 1.783v0c0.526 0.599 1.168 1.168 1.926 1.706v0l-2.553 2.242c-0.993-0.725-1.797-1.437-2.411-2.137v0c-1.335-1.521-1.958-2.86-1.869-4.018 0.084-1.153 0.857-2.371 2.318-3.653v0l10.108-8.874-1.897-2.161 2.614-2.294 1.897 2.16 5.703-5.007 2.474 2.818-5.704 5.007 3.376 3.845z" fill="#ed9f20" data-fill-palette-color="accent"></path><path d="M107.691 214.46l4.031 1.418-10.046 28.553-3.651-1.284 8.097-23.015-13.014 9.094-1.925-0.677-4.387-15.216-8.097 23.015-3.651-1.285 10.045-28.553 3.993 1.405 4.719 16.302z" fill="#ed9f20" data-fill-palette-color="accent"></path><path d="M148.885 220.061c2.266-0.579 4.091-0.638 5.475-0.175 1.382 0.456 2.428 1.271 3.136 2.446 0.717 1.18 1.322 2.737 1.817 4.671v0l3.165 12.379-3.633 0.929-0.543-2.123c-0.743 1.179-1.553 2.099-2.428 2.758-0.874 0.666-1.879 1.145-3.016 1.435v0c-1.344 0.344-2.63 0.361-3.857 0.052-1.232-0.301-2.307-0.918-3.223-1.853-0.91-0.936-1.556-2.151-1.938-3.644v0c-0.594-2.324-0.33-4.308 0.792-5.951 1.114-1.648 2.896-2.784 5.343-3.41v0c1.935-0.495 3.787-0.515 5.557-0.062v0c-0.348-1.253-0.735-2.226-1.162-2.919-0.425-0.687-1.048-1.136-1.87-1.348-0.824-0.218-1.946-0.146-3.368 0.217v0l-2.863 0.732-0.832-3.253zM152.563 239.115c0.877-0.224 1.745-0.668 2.606-1.33 0.863-0.656 1.653-1.516 2.371-2.578v0l-1.247-4.879c-1.632-0.351-3.299-0.308-5 0.126v0c-1.37 0.35-2.435 0.972-3.197 1.866-0.759 0.9-0.941 2.122-0.546 3.667v0c0.369 1.441 1.033 2.392 1.995 2.852 0.953 0.455 1.959 0.547 3.018 0.276z" fill="#ed9f20" data-fill-palette-color="accent"></path><path d="M195.014 197.736l-3.849 3.371 8.313 9.49c0.702 0.802 1.305 1.236 1.808 1.303 0.508 0.072 1.103-0.191 1.783-0.787v0c0.6-0.525 1.17-1.167 1.709-1.924v0l2.239 2.556c-0.726 0.992-1.439 1.795-2.14 2.408v0c-1.522 1.334-2.863 1.955-4.02 1.864-1.153-0.086-2.37-0.86-3.65-2.321v0l-8.863-10.118-2.163 1.894-2.291-2.616 2.162-1.895-5-5.709 2.82-2.471 5.001 5.71 3.849-3.372z" fill="#ed9f20" data-fill-palette-color="accent"></path><path d="M221.99 170.369c2.297 0.861 4.341 1.022 6.13 0.482 1.798-0.544 3.173-2.004 4.124-4.381v0c0.722-1.804 1.005-3.983 0.851-6.535v0l3.322 0.084c0.265 2.712-0.127 5.377-1.175 7.997v0c-0.871 2.178-2.071 3.849-3.598 5.014-1.527 1.165-3.267 1.815-5.219 1.95-1.949 0.144-4.009-0.218-6.181-1.087v0c-2.302-0.921-4.095-2.122-5.379-3.604-1.287-1.475-2.069-3.083-2.346-4.825-0.277-1.742-0.065-3.491 0.637-5.246v0c1.078-2.694 2.765-4.474 5.059-5.338 2.292-0.858 5.007-0.66 8.143 0.594v0l1.372 0.549zM216.264 161.462c-1.225 3.061-0.26 5.566 2.894 7.514v0l4.183-10.454c-1.78-0.568-3.246-0.61-4.4-0.125-1.16 0.481-2.052 1.503-2.677 3.065z" fill="#ed9f20" data-fill-palette-color="accent"></path><path d="M4.109 126.078c0-6.386 5.177-11.563 11.563-11.563 6.386 0 11.563 5.177 11.562 11.563 0 6.386-5.177 11.563-11.562 11.563-6.386 0-11.563-5.177-11.563-11.563z" fill="#ed9f20" data-fill-palette-color="accent"></path><path d="M219.575 126.078c0-6.386 5.177-11.563 11.562-11.563 6.386 0 11.563 5.177 11.563 11.563 0 6.386-5.177 11.563-11.563 11.563-6.386 0-11.563-5.177-11.562-11.563z" fill="#ed9f20" data-fill-palette-color="accent"></path></g><g id="text-1"></g></svg></g></svg></g></svg></g><defs></defs></svg><rect width="395.52" height="137.8469948020275" fill="none" stroke="none" visibility="hidden"></rect></g></svg></g></svg>